<?xml version="1.0" encoding="UTF-8" standalone="no"?>
<!DOCTYPE svg PUBLIC "-//W3C//DTD SVG 1.1//EN" "http://www.w3.org/Graphics/SVG/1.1/DTD/svg11.dtd">
<svg xmlns="http://www.w3.org/2000/svg" version="1.1" viewBox="0.00 0.00 1200.00 800.00">
<path fill="#ffffff" d="
  M 1050.93 344.33
  Q 1051.03 344.32 1051.04 344.43
  L 1051.07 344.70
  Q 1051.07 344.72 1051.05 344.72
  Q 1008.65 349.48 966.91 361.85
  Q 930.84 372.54 898.86 387.85
  Q 854.42 409.13 818.19 440.17
  Q 811.33 446.04 801.28 455.84
  Q 800.86 456.25 800.26 456.25
  L 767.44 456.25
  Q 766.73 456.25 767.23 455.74
  Q 784.40 438.64 804.06 424.69
  Q 830.23 406.11 859.27 392.24
  Q 877.27 383.64 897.11 376.26
  Q 934.70 362.28 977.27 354.01
  Q 1013.42 346.98 1050.93 344.33
  Z"
/>
<path fill="#ffffff" d="
  M 445.32 428.01
  L 423.81 398.34
  A 0.31 0.31 0.0 0 1 423.82 397.97
  L 436.38 382.47
  A 0.31 0.31 0.0 0 1 436.87 382.48
  L 491.23 455.88
  A 0.31 0.31 0.0 0 1 490.98 456.37
  L 466.28 456.37
  A 0.31 0.31 0.0 0 1 466.03 456.24
  L 454.84 440.72
  A 0.31 0.31 0.0 0 0 454.59 440.59
  L 389.07 440.59
  A 0.31 0.31 0.0 0 1 388.85 440.07
  L 399.70 428.61
  A 0.31 0.31 0.0 0 1 399.92 428.51
  L 445.07 428.50
  A 0.31 0.31 0.0 0 0 445.32 428.01
  Z"
/>
<path fill="#ffffff" d="
  M 222.50 442.13
  L 222.50 427.03
  Q 222.50 426.50 221.97 426.50
  Q 191.44 426.50 160.74 426.50
  C 153.89 426.50 146.50 424.81 142.48 418.92
  C 139.57 414.66 140.44 405.69 140.58 400.48
  C 140.92 387.95 150.98 385.03 161.50 384.98
  Q 190.12 384.83 218.75 384.91
  Q 226.56 384.93 232.17 388.11
  C 235.79 390.15 238.03 393.03 239.73 396.69
  A 0.57 0.57 0.0 0 1 239.22 397.50
  L 160.75 397.50
  Q 160.25 397.50 160.25 398.00
  L 160.25 412.24
  Q 160.25 412.75 160.76 412.75
  Q 189.79 412.74 220.75 412.80
  Q 227.77 412.81 233.33 415.39
  Q 241.47 419.16 241.87 427.60
  Q 242.17 434.10 241.97 440.95
  Q 241.67 450.88 233.47 454.25
  Q 228.87 456.14 223.42 456.16
  Q 195.14 456.29 162.11 456.27
  C 151.93 456.26 142.31 454.77 138.73 443.81
  Q 138.38 442.75 139.49 442.75
  L 221.87 442.75
  Q 222.50 442.75 222.50 442.13
  Z"
/>
<path fill="#ffffff" d="
  M 533.00 398.13
  L 533.00 442.00
  Q 533.00 442.50 533.50 442.50
  L 612.81 442.50
  Q 613.82 442.50 613.55 443.47
  Q 612.95 445.59 611.94 447.64
  C 608.23 455.16 599.93 455.90 592.59 455.94
  Q 561.80 456.09 530.75 455.91
  Q 526.02 455.89 521.46 454.35
  Q 517.21 452.93 514.32 449.58
  Q 511.19 445.97 511.16 439.42
  Q 511.05 419.82 511.19 400.92
  Q 511.25 392.14 518.03 388.24
  Q 523.76 384.95 530.43 384.93
  Q 559.35 384.82 591.14 384.89
  C 600.68 384.91 609.99 387.19 613.55 396.39
  Q 613.98 397.50 612.79 397.50
  L 533.63 397.50
  Q 533.00 397.50 533.00 398.13
  Z"
/>
<path fill="#ffffff" d="
  M 293.57 429.70
  L 293.59 455.72
  Q 293.59 456.28 293.03 456.28
  L 272.69 456.38
  Q 272.00 456.39 272.00 455.69
  L 272.00 385.98
  A 0.84 0.83 -0.3 0 1 272.83 385.15
  Q 310.52 385.06 348.85 385.17
  Q 354.29 385.18 360.00 386.76
  C 367.48 388.82 373.54 394.41 373.77 402.30
  C 373.95 408.28 374.69 415.88 371.20 421.12
  C 366.92 427.54 357.27 429.03 349.85 429.02
  Q 322.37 428.98 294.28 429.00
  Q 293.57 429.00 293.57 429.70
  Z
  M 293.69 397.51
  L 293.63 415.29
  A 0.38 0.38 0.0 0 0 294.01 415.67
  L 347.73 415.86
  A 7.64 6.40 0.2 0 0 355.39 409.49
  L 355.41 403.75
  A 7.64 6.40 0.2 0 0 347.79 397.32
  L 294.07 397.13
  A 0.38 0.38 0.0 0 0 293.69 397.51
  Z"
/>
<rect fill="#ffffff" x="645.67" y="385.12" width="97.20" height="12.48" rx="0.30"/>
<path fill="#ffffff" d="
  M 802.83 385.19
  L 826.96 402.45
  A 0.32 0.32 0.0 0 1 826.94 402.98
  L 808.96 414.16
  A 0.32 0.32 0.0 0 1 808.61 414.14
  L 769.73 385.69
  A 0.32 0.32 0.0 0 1 769.92 385.11
  L 802.65 385.13
  A 0.32 0.32 0.0 0 1 802.83 385.19
  Z"
/>
<path fill="#ffffff" d="
  M 665.13 421.46
  L 665.11 442.66
  A 0.34 0.34 0.0 0 0 665.45 443.00
  L 739.22 443.00
  A 0.34 0.34 0.0 0 1 739.56 443.34
  L 739.57 456.03
  A 0.34 0.34 0.0 0 1 739.23 456.37
  L 643.59 456.38
  A 0.34 0.34 0.0 0 1 643.25 456.04
  L 643.25 409.34
  A 0.34 0.34 0.0 0 1 643.59 409.00
  L 708.17 409.00
  A 0.34 0.34 0.0 0 1 708.51 409.34
  L 708.48 420.78
  A 0.34 0.34 0.0 0 1 708.14 421.12
  L 665.47 421.12
  A 0.34 0.34 0.0 0 0 665.13 421.46
  Z"
/>
<path fill="#ffffff" d="
  M 865.08 456.17
  L 835.28 434.38
  A 0.33 0.33 0.0 0 1 835.28 433.84
  L 851.82 421.74
  A 0.33 0.33 0.0 0 1 852.21 421.74
  L 898.52 455.69
  A 0.33 0.33 0.0 0 1 898.33 456.29
  L 865.28 456.23
  A 0.33 0.33 0.0 0 1 865.08 456.17
  Z"
/>
</svg>
